<?xml version="1.0" standalone="no"?>
<!DOCTYPE svg PUBLIC "-//W3C//DTD SVG 20010904//EN"
 "http://www.w3.org/TR/2001/REC-SVG-20010904/DTD/svg10.dtd">
<svg version="1.0" xmlns="http://www.w3.org/2000/svg"
 width="512.000000pt" height="512.000000pt" viewBox="0 0 512.000000 512.000000"
 preserveAspectRatio="xMidYMid meet">

<g transform="translate(0.000000,512.000000) scale(0.100000,-0.100000)"
fill="#000000" stroke="none">
<path d="M1196 5104 c-190 -46 -389 -224 -501 -449 -93 -187 -127 -353 -127
-620 0 -381 91 -808 272 -1280 87 -226 115 -285 138 -285 38 0 996 240 1009
252 37 37 104 758 107 1143 1 248 -7 332 -45 487 -129 522 -490 840 -853 752z"/>
<path d="M3692 4130 c-149 -31 -325 -167 -438 -336 -90 -136 -153 -292 -195
-483 -33 -151 -38 -554 -10 -891 21 -253 64 -631 76 -663 4 -9 21 -21 38 -26
112 -35 954 -242 975 -239 32 4 39 17 113 203 329 830 396 1554 183 1977 -100
198 -280 369 -460 438 -66 25 -209 35 -282 20z"/>
<path d="M1845 2176 c-126 -35 -339 -93 -473 -129 -133 -36 -247 -69 -252 -72
-19 -12 -9 -61 65 -340 87 -323 100 -360 158 -436 310 -413 956 -199 957 316
0 69 -12 124 -84 394 -46 175 -89 317 -97 322 -21 13 -27 12 -274 -55z"/>
<path d="M2996 1238 c-23 -37 -168 -597 -174 -670 -18 -254 156 -489 410 -554
232 -60 500 72 602 296 14 30 62 192 106 359 79 293 81 304 63 321 -11 10
-138 49 -313 95 -162 42 -378 99 -480 126 -102 27 -188 49 -192 49 -4 0 -14
-10 -22 -22z"/>
</g>
</svg>
