<?xml version="1.0" standalone="no"?>
<!DOCTYPE svg PUBLIC "-//W3C//DTD SVG 20010904//EN"
 "http://www.w3.org/TR/2001/REC-SVG-20010904/DTD/svg10.dtd">
<svg version="1.0" xmlns="http://www.w3.org/2000/svg"
 width="512.000000pt" height="512.000000pt" viewBox="0 0 512.000000 512.000000"
 preserveAspectRatio="xMidYMid meet">

<g transform="translate(0.000000,512.000000) scale(0.100000,-0.100000)"
fill="#000000" stroke="none">
<path d="M4330 4374 c-30 -8 -89 -31 -130 -51 -72 -35 -112 -74 -1155 -1115
l-1080 -1078 -460 461 c-253 253 -487 480 -520 503 -101 73 -181 99 -313 104
-100 4 -122 1 -196 -22 -341 -106 -501 -483 -344 -813 30 -64 80 -117 767
-804 688 -687 740 -737 804 -767 189 -90 410 -80 574 26 26 17 640 624 1364
1349 1221 1223 1318 1323 1347 1384 83 172 83 347 0 519 -72 150 -217 266
-379 305 -80 18 -207 18 -279 -1z"/>
</g>
</svg>
